<svg xmlns="http://www.w3.org/2000/svg" width="1920" height="3000" viewBox="850.5 1128 1920 3000">
    <path opacity=".05" fill="#287571" d="M1389.156,3559.447c-3.504,21-11.508,40.629-24,58.875	c-12.504,18.258-30.504,33.504-54,45.75c-23.508,12.246-55.254,18.375-95.25,18.375c-22.5,0-44.25-3.129-65.25-9.375	s-39.75-15.996-56.25-29.25c-16.5-13.242-29.754-30.246-39.75-51c-10.008-20.742-15-45.867-15-75.375v-46.5h106.5v24	c0,13.008,0.996,25.008,3,36c1.992,11.004,5.496,20.379,10.5,28.125c4.992,7.758,11.871,13.875,20.625,18.375	c8.742,4.5,20.121,6.75,34.125,6.75c15.492,0,27.492-2.742,36-8.25c8.496-5.496,14.625-12.621,18.375-21.375	c3.75-8.742,6-18.246,6.75-28.5c0.75-10.242,1.125-20.121,1.125-29.625v-361.5h117.75v366.75	C1394.406,3519.205,1392.648,3538.447,1389.156,3559.447z"/>
    <path opacity=".05" fill="#287571" d="M1851.908,3134.947v99h-282.752v114.75h259.502v91.5h-259.502	v131.25h288.752v99h-406.502v-535.5H1851.908z"/>
    <path opacity=".05" fill="#287571" d="M2234.4,3277.822c-7.009-11.25-15.75-21.117-26.25-29.625	c-10.5-8.496-22.384-15.117-35.625-19.875c-13.254-4.746-27.129-7.125-41.625-7.125c-26.509,0-49.009,5.133-67.5,15.375	c-18.504,10.254-33.504,24-45,41.25c-11.509,17.25-19.875,36.879-25.123,58.875c-5.25,22.008-7.875,44.754-7.875,68.25	c0,22.5,2.625,44.379,7.875,65.625c5.248,21.258,13.614,40.383,25.123,57.375c11.496,17.004,26.496,30.633,45,40.875	c18.491,10.254,40.991,15.375,67.5,15.375c36,0,64.125-10.992,84.375-33c20.25-21.996,32.625-51,37.125-87h114	c-3,33.504-10.759,63.75-23.25,90.75c-12.504,27-29.004,50.004-49.5,69c-20.509,19.008-44.509,33.504-72,43.5	c-27.504,9.996-57.75,15-90.75,15c-41.004,0-77.884-7.125-110.625-21.375c-32.752-14.25-60.373-33.867-82.871-58.875	c-22.5-24.996-39.75-54.375-51.75-88.125s-18-70.125-18-109.125c0-39.996,6-77.121,18-111.375c12-34.242,29.25-64.125,51.75-89.625	c22.498-25.5,50.119-45.492,82.871-60c32.741-14.496,69.621-21.75,110.625-21.75c29.496,0,57.375,4.254,83.625,12.75	c26.25,8.508,49.746,20.883,70.5,37.125c20.741,16.254,37.875,36.375,51.375,60.375s21.996,51.504,25.5,82.5h-114	C2245.896,3301.447,2241.396,3289.072,2234.4,3277.822z"/>
    <path opacity=".05" fill="#287571" d="M2358.148,3233.947v-99H2770.5v99h-134.102v436.5h-117.75	v-436.5H2358.148z"/>
    <path opacity=".05" fill="#287571" d="M1060,1584.25c33.492,0,61.992,4.875,85.5,14.625	c23.496,9.75,42.621,22.629,57.375,38.625c14.742,16.008,25.5,34.252,32.25,54.749c6.75,20.508,10.125,41.755,10.125,63.75	c0,21.504-3.375,42.634-10.125,63.376c-6.75,20.754-17.508,39.129-32.25,55.125c-14.754,16.008-33.879,28.875-57.375,38.625	c-23.508,9.748-52.008,14.623-85.5,14.623H936.25v192.002H850.5v-535.5H1060z M1027.75,1836.25c13.5,0,26.496-0.996,39-3	c12.492-1.992,23.496-5.871,33-11.625c9.492-5.742,17.121-13.875,22.875-24.376c5.742-10.5,8.625-24.246,8.625-41.25	c0-16.991-2.883-30.75-8.625-41.25c-5.754-10.5-13.383-18.621-22.875-24.375c-9.504-5.742-20.508-9.621-33-11.625	c-12.504-1.992-25.5-3-39-3h-91.5v160.501H1027.75z"/>
    <path opacity=".05" fill="#287571" d="M1560.994,1584.25c24,0,45.623,3.879,64.877,11.625	c19.242,7.758,35.742,18.375,49.5,31.875c13.746,13.5,24.246,29.133,31.5,46.874c7.242,17.754,10.875,36.879,10.875,57.376	c0,31.499-6.633,58.757-19.875,81.75c-13.254,23.004-34.875,40.5-64.875,52.5v1.5c14.496,4.008,26.496,10.125,36,18.375	c9.492,8.25,17.25,18,23.25,29.25c6,11.248,10.371,23.625,13.125,37.125c2.742,13.5,4.617,27,5.625,40.5	c0.492,8.508,0.996,18.504,1.5,30c0.492,11.508,1.371,23.25,2.625,35.25c1.242,12,3.246,23.379,6,34.125	c2.742,10.758,6.867,19.875,12.375,27.375h-117.75c-6.504-16.992-10.5-37.242-12-60.75c-1.5-23.496-3.75-45.996-6.752-67.5	c-4.008-27.996-12.504-48.492-25.5-61.502c-13.008-12.994-34.254-19.498-63.75-19.498h-117.75v209.25h-117.75v-535.5H1560.994z M1518.994,1826.5c27,0,47.25-6,60.75-18c13.5-12.001,20.252-31.501,20.252-58.5c0-25.993-6.752-44.872-20.252-56.626	c-13.5-11.742-33.75-17.625-60.75-17.625h-129V1826.5H1518.994z"/>
    <path opacity=".05" fill="#287571" d="M1761.984,1742.875c12-34.243,29.25-64.126,51.75-89.624	c22.5-25.5,50.121-45.493,82.875-60c32.742-14.497,69.619-21.751,110.621-21.751c41.495,0,78.491,7.254,111,21.75	c32.495,14.508,60,34.5,82.5,60c22.5,25.498,39.75,55.381,51.75,89.624c12,34.253,18,71.379,18,111.375c0,39-6,75.373-18,109.125	c-12,33.75-29.25,63.129-51.75,88.125c-22.5,25.008-50.005,44.625-82.5,58.875c-32.509,14.25-69.505,21.375-111,21.375	c-41.002,0-77.88-7.125-110.621-21.375c-32.754-14.25-60.375-33.867-82.875-58.875c-22.5-24.996-39.75-54.375-51.75-88.125	c-12-33.752-18-70.125-18-109.125C1743.984,1814.254,1749.984,1777.128,1761.984,1742.875z M1869.609,1919.873	c5.25,21.26,13.616,40.385,25.125,57.377c11.496,17.004,26.496,30.633,45,40.875c18.491,10.254,40.989,15.375,67.496,15.375	c26.495,0,48.995-5.121,67.5-15.375c18.491-10.242,33.491-23.871,45-40.875c11.495-16.992,19.875-36.117,25.125-57.377	c5.25-21.244,7.875-43.123,7.875-65.623c0-23.496-2.625-46.242-7.875-68.251c-5.25-21.996-13.63-41.624-25.125-58.875	c-11.509-17.25-26.509-30.996-45-41.25c-18.505-10.242-41.005-15.375-67.5-15.375c-26.507,0-49.005,5.133-67.496,15.375	c-18.504,10.254-33.504,24-45,41.25c-11.509,17.251-19.875,36.879-25.125,58.875c-5.25,22.009-7.875,44.755-7.875,68.251	C1861.734,1876.75,1864.359,1898.629,1869.609,1919.873z"/>
</svg>
